<?xml version="1.0" encoding="UTF-8" standalone="no"?>
<!-- Created with Inkscape (http://www.inkscape.org/) -->

<svg
   width="357"
   height="124"
   viewBox="0 0 94.456245 32.808334"
   version="1.1"
   id="svg1"
   xml:space="preserve"
   inkscape:version="1.3 (0e150ed6c4, 2023-07-21)"
   sodipodi:docname="logo - 357 x 124.svg"
   xmlns:inkscape="http://www.inkscape.org/namespaces/inkscape"
   xmlns:sodipodi="http://sodipodi.sourceforge.net/DTD/sodipodi-0.dtd"
   xmlns:xlink="http://www.w3.org/1999/xlink"
   xmlns="http://www.w3.org/2000/svg"
   xmlns:svg="http://www.w3.org/2000/svg"><sodipodi:namedview
     id="namedview1"
     pagecolor="#ffffff"
     bordercolor="#000000"
     borderopacity="0.25"
     inkscape:showpageshadow="2"
     inkscape:pageopacity="0.0"
     inkscape:pagecheckerboard="0"
     inkscape:deskcolor="#d1d1d1"
     inkscape:document-units="mm"
     inkscape:zoom="1"
     inkscape:cx="538"
     inkscape:cy="52"
     inkscape:window-width="1920"
     inkscape:window-height="1017"
     inkscape:window-x="5152"
     inkscape:window-y="-8"
     inkscape:window-maximized="1"
     inkscape:current-layer="layer1" /><defs
     id="defs1"><linearGradient
       id="swatch1916"
       inkscape:swatch="solid"><stop
         style="stop-color:#ba3736;stop-opacity:1;"
         offset="0"
         id="stop1916" /></linearGradient><linearGradient
       id="swatch1912"><stop
         style="stop-color:#0f9dd3;stop-opacity:1;"
         offset="0"
         id="stop1912" /></linearGradient><rect
       x="82.077873"
       y="114.90902"
       width="1880.066"
       height="434.52991"
       id="rect1912" /><radialGradient
       inkscape:collect="always"
       xlink:href="#swatch1912"
       id="radialGradient1912"
       cx="121.61204"
       cy="172.34857"
       fx="121.61204"
       fy="172.34857"
       r="67.448692"
       gradientTransform="matrix(0.96101178,0,0,0.00741304,-19.158042,139.91678)"
       gradientUnits="userSpaceOnUse" /></defs><g
     inkscape:label="Layer 1"
     inkscape:groupmode="layer"
     id="layer1"><g
       id="g1900"
       transform="matrix(0.18270365,0,0,0.18270365,-10.089795,-4.5095718)"><path
         style="fill:#252426;fill-opacity:1"
         d="m 82.739863,157.16335 c 0,-0.15209 0.57699,-1.13436 1.2822,-2.18281 0.705211,-1.04846 3.879027,-6.07347 7.052926,-11.1667 3.173899,-5.09323 9.781061,-15.68979 14.682581,-23.54792 9.0507,-14.51009 15.5848,-25.016485 17.56189,-28.23829 1.44397,-2.353067 1.38142,-2.393169 4.83505,3.100153 4.05939,6.456847 3.87224,5.652157 2.00678,8.628747 -0.85707,1.36756 -3.9504,6.41554 -6.87407,11.21773 -2.92366,4.80219 -8.272,13.51965 -11.8852,19.37215 -3.6132,5.8525 -8.05773,13.10591 -9.87674,16.1187 -4.755583,7.87657 -3.247348,6.97477 -11.665187,6.97477 -4.775536,0 -7.12023,-0.0911 -7.12023,-0.27653 z m 17.462497,-0.41211 c 0,-0.39071 5.8989,-9.74107 6.65461,-10.54824 0.48059,-0.51332 0.91558,-0.51998 28.53442,-0.43734 17.49755,0.0524 28.04639,-0.0101 28.04639,-0.16617 0,-0.22296 -14.44649,-24.22588 -20.10427,-33.40336 -2.55201,-4.1396 -5.14309,-8.41573 -10.58123,-17.462496 -2.14313,-3.56526 -4.28334,-7.097941 -4.75603,-7.850401 -0.85943,-1.36811 -0.85943,-1.36811 2.05083,-6.085416 1.60065,-2.594519 3.21978,-5.230442 3.59807,-5.857606 0.37829,-0.627164 0.79992,-1.071008 0.93695,-0.98632 0.85695,0.529626 24.61367,40.169789 36.31787,60.599529 3.21995,5.62044 11.07131,18.69061 12.55394,20.89856 0.48728,0.72566 0.88596,1.38279 0.88596,1.4603 0,0.0775 -18.93094,0.15099 -42.06875,0.1633 -34.52461,0.0184 -42.06876,-0.0398 -42.06876,-0.32434 z"
         id="path1901"
         inkscape:label="path1901" /><path
         style="fill:#0f9dd3;fill-opacity:1"
         d="m 100.11565,156.85347 c -1.358037,-0.0471 6.00473,-10.17861 6.86348,-10.80969 1.0714,-0.78734 27.97101,-0.81436 27.77197,0.053 -0.13482,0.58752 -2.90601,2.14574 -1.6526,2.78953 0.45745,0.23496 1.60935,1.73817 1.31438,2.73077 -0.39454,1.32765 -4.71789,3.50131 -2.22734,4.26075 7.49292,2.28481 -5.7325,1.02035 -19.12577,1.18767 -9.09411,0.11361 -12.7525,-0.089 -12.94412,-0.21202 z m 60.47959,-16.20787 c -1.3005,-1.79385 -3.44015,-5.44197 -8.40443,-13.66837 -2.37102,-3.92906 -6.01921,-10.15523 -7.94148,-13.28393 -3.69422,-6.01275 -15.87625,-26.318579 -16.09969,-26.615406 -0.80159,-1.064875 -0.84679,-1.994669 0.023,-3.369392 0.47836,-0.756098 1.96819,-2.986622 3.33694,-5.242195 2.55469,-4.209863 2.86116,-4.984061 3.37591,-4.175574 7.54786,11.855066 29.43711,48.270937 32.5936,54.415767 0.36027,0.70135 0.85115,0.74938 0.5804,2.59578 -0.17425,1.18837 -0.43504,2.02752 -1.52764,1.00099 -1.98758,-1.86738 -0.84235,1.37075 -1.36758,2.42108 -0.81671,1.63323 -2.9313,-0.20736 -4.16646,-0.40315 -3.67992,-0.58333 0.45527,6.3244 -0.40252,6.3244 z"
         id="path1900"
         sodipodi:nodetypes="ssssssccsssssscssssssss" /></g><g
       id="g1939"
       transform="matrix(0.46635405,0,0,0.46635405,15.021429,-40.476136)"><g
         id="g1938"><path
           id="text1912"
           style="font-size:133.333px;font-family:'Gill Sans MT';-inkscape-font-specification:'Gill Sans MT';white-space:pre;fill:#252426;stroke:none;stroke-width:0.274238;stroke-opacity:1"
           d="m 90.011287,110.29405 c -3.817264,0 -6.974573,1.23286 -9.47229,3.69797 -2.497715,2.4651 -3.746541,5.57931 -3.746541,9.3431 0,3.66759 1.236733,6.72221 3.710885,9.16326 2.485936,2.42903 5.590634,3.64319 9.313645,3.64319 3.899736,0 7.128055,-1.21416 9.684679,-3.64319 2.568405,-2.44105 3.852475,-5.5194 3.852475,-9.23509 0,-3.71569 -1.27249,-6.80617 -3.817335,-9.27127 -2.53306,-2.46511 -5.708254,-3.69797 -9.525518,-3.69797 z m 23.716383,0.0362 c -2.15605,0 -3.91145,0.6192 -5.26635,1.85776 -1.34311,1.23857 -2.01434,2.85023 -2.01434,4.83434 0,1.32273 0.35298,2.49498 1.05988,3.51709 0.71868,1.01009 1.92068,2.0384 3.60547,3.08457 l 2.68614,1.65933 c 2.16783,1.37084 3.25199,2.82592 3.25199,4.36511 0,0.94996 -0.37138,1.74341 -1.11362,2.38073 -0.73047,0.62529 -1.64946,0.93793 -2.75694,0.93793 -2.5095,0 -4.71835,-1.23235 -6.62699,-3.69745 v 4.58112 c 2.00289,1.52716 4.22384,2.29081 6.66264,2.29081 2.12071,0 3.84087,-0.63133 5.16042,-1.89394 1.33132,-1.26261 1.99677,-2.90407 1.99677,-4.92425 0,-2.83787 -1.50816,-5.17023 -4.52427,-6.99802 l -2.70371,-1.62367 c -1.21351,-0.7215 -2.09147,-1.41292 -2.63343,-2.0743 -0.54196,-0.66136 -0.81287,-1.37098 -0.81287,-2.12855 0,-0.85376 0.37138,-1.55125 1.11363,-2.09238 0.74224,-0.55314 1.69069,-0.8294 2.8453,-0.8294 2.05001,0 3.96428,0.87173 5.74332,2.61534 v -4.09432 c -1.72013,-1.17844 -3.61125,-1.76785 -5.67304,-1.76785 z m 41.0006,0 c -3.75836,0 -6.92197,1.25053 -9.49038,3.75171 -2.55662,2.50117 -3.8349,5.58558 -3.8349,9.25318 0,2.30878 0.5597,4.45529 1.67896,6.4394 1.11926,1.98411 2.639,3.54121 4.55941,4.67155 1.92042,1.13034 4.2592,1.6955 7.01611,1.6955 3.39313,0 6.38578,-0.72122 8.97775,-2.16421 v -3.96823 c -2.85117,1.87588 -5.77333,2.81378 -8.76587,2.81378 -2.86295,0 -5.21331,-0.88992 -7.05125,-2.6696 -1.83795,-1.77969 -2.75694,-4.05247 -2.75694,-6.81819 0,-2.74168 0.93109,-5.02052 2.79259,-6.83628 1.87329,-1.82778 4.22365,-2.74143 7.05125,-2.74143 2.75691,0 5.57861,0.84194 8.46512,2.52543 v -3.87832 c -3.16927,-1.38286 -6.04988,-2.07429 -8.64185,-2.07429 z M 44.115898,110.5106 33.512412,135.85324 h 3.622517 l 3.110406,-7.46777 h 10.49755 l 3.287136,7.46777 h 3.623036 L 46.607735,110.51058 Z m -16.895093,0.14417 v 24.45898 c 0,2.06828 -0.158868,3.42083 -0.476973,4.05815 -0.306324,0.63732 -0.730834,1.08228 -1.272791,1.3348 -0.530176,0.25252 -1.30188,0.37879 -2.315104,0.37879 H 22.2547 l 0.654224,3.35483 c 0.541957,0.0721 0.924398,0.10852 1.14825,0.10852 1.460928,0 2.71027,-0.33688 3.747058,-1.01027 1.036787,-0.66137 1.784821,-1.55129 2.244306,-2.66961 0.471269,-1.10629 0.706934,-2.81945 0.706934,-5.14025 v -24.87394 z m 27.533721,0 10.639142,25.30647 h 0.795302 l 10.426753,-25.30647 h -3.517099 l -7.369576,17.69505 -7.422286,-17.69505 z m 69.506354,0 v 25.16229 h 14.33246 v -3.21065 h -10.79831 v -7.82795 h 10.10894 v -3.22874 h -10.10894 v -7.68429 h 10.46241 v -3.21066 z m -34.107998,3.06648 c 2.686223,0 4.948207,0.91417 6.786149,2.74196 1.849723,1.81576 2.774507,4.05822 2.774507,6.72775 0,2.74168 -0.924784,5.03264 -2.774507,6.87245 -1.837942,1.83981 -4.13569,2.75952 -6.892604,2.75952 -2.745131,0 -5.030785,-0.90204 -6.856944,-2.70578 -1.826161,-1.80373 -2.738852,-4.06439 -2.738852,-6.78201 0,-2.8018 0.906901,-5.10437 2.721281,-6.90811 1.826161,-1.80373 4.153367,-2.70578 6.98097,-2.70578 z m -44.835507,2.32699 3.976502,9.12658 h -7.669816 z" /><path
           style="fill:url(#radialGradient1912);fill-opacity:1;stroke:#0f9dd3;stroke-width:0.980312;stroke-dasharray:none;stroke-opacity:1"
           d="m 32.893573,141.19441 h 74.148997 55.48899"
           id="path1912"
           sodipodi:nodetypes="ccc" /><path
           style="fill:#252426;fill-opacity:1;stroke:#252426;stroke-width:1;stroke-dasharray:none;stroke-opacity:1"
           d="M 43.812014,141.20009 H 136.55392"
           id="path1916" /></g></g></g></svg>
